<svg width="240" height="356" viewBox="0 0 240 356" fill="none" xmlns="http://www.w3.org/2000/svg">
<path d="M109.394 4.3814C115.242 -1.46047 124.788 -1.46047 130.606 4.3814L229.394 103.269C235.242 109.111 240 120.643 240 128.907V219.017L239.995 219.373C239.789 227.459 233.114 234.001 225 234.001H15C6.75759 234.001 2.40473e-05 227.22 0 218.987V128.877C0.000120331 120.613 4.78834 109.081 10.6064 103.239L109.394 4.3814Z" fill="#F2F4F9"/>
<path d="M109.394 4.3814C115.242 -1.46047 124.788 -1.46047 130.606 4.3814L229.394 103.269C235.242 109.111 240 120.643 240 128.907V219.017L239.995 219.373C239.789 227.459 233.114 234.001 225 234.001H15C6.75759 234.001 2.40473e-05 227.22 0 218.987V128.877C0.000120331 120.613 4.78834 109.081 10.6064 103.239L109.394 4.3814ZM36 120.001C31.5817 120.001 28 123.582 28 128.001V206.001H44V128.001C44 123.582 40.4183 120.001 36 120.001ZM68 120.001C63.5817 120.001 60 123.582 60 128.001V206.001H76V128.001C76 123.582 72.4183 120.001 68 120.001ZM100 120.001C95.5817 120.001 92 123.582 92 128.001V206.001H108V128.001C108 123.582 104.418 120.001 100 120.001ZM158.393 120.427C154.2 119.032 149.671 121.3 148.275 125.492L121.479 206.001H138.342L163.456 130.544C164.851 126.352 162.584 121.823 158.393 120.427ZM188.708 125.492C187.313 121.3 182.783 119.032 178.591 120.427C174.399 121.823 172.131 126.352 173.526 130.544L198.642 206.001H215.504L188.708 125.492Z" fill="#18BCF2"/>
<path d="M40.8885 256.575V297.59H33.3779V273.624L23.9274 297.587H16.6624L7.32086 273.814V297.587H0V256.575H7.32086L20.2935 288.683L33.3779 256.575H40.8885Z" fill="#1D2126"/>
<path d="M68.5002 297.587C68.2629 296.822 68.0899 295.892 67.9811 294.801C66.3232 297.152 63.6661 298.324 60.0043 298.324C56.9454 298.324 54.2408 297.442 51.8936 295.674C49.6552 293.871 48.5332 290.894 48.5332 286.739V269.824H55.8541V285.262C55.8541 287.759 56.4374 289.479 57.6012 290.428C58.7484 291.358 60.0685 291.821 61.5617 291.821C63.1638 291.821 64.6011 291.321 65.8766 290.319C67.1689 289.3 67.8164 287.597 67.8164 285.209V269.827H75.1624V292.452C75.1624 294.309 75.3438 296.024 75.7094 297.59H68.5002V297.587Z" fill="#1D2126"/>
<path d="M91.4172 292.505C92.6564 292.505 93.6305 292.265 94.3394 291.782C95.0483 291.299 95.4056 290.604 95.4056 289.691C95.4056 288.342 94.5041 287.449 92.7011 287.013L89.0141 286.002C86.2091 285.273 84.1661 284.226 82.8822 282.861C81.5984 281.496 80.9564 279.82 80.9564 277.832C80.9564 275.21 81.9026 273.077 83.7977 271.438C85.69 269.799 88.2494 268.978 91.473 268.978C94.3143 268.978 96.6894 269.629 98.6013 270.933C100.513 272.237 101.677 274.035 102.098 276.33L95.5702 277.832C95.4614 276.922 95.0511 276.202 94.3422 275.674C93.6333 275.146 92.7485 274.881 91.6935 274.881C90.5827 274.881 89.7091 275.132 89.0727 275.632C88.4364 276.132 88.1182 276.83 88.1182 277.723C88.1182 278.396 88.3638 278.952 88.855 279.39C89.3462 279.829 90.1473 280.2 91.2581 280.51L94.892 281.468C97.4597 282.141 99.4079 283.179 100.736 284.584C102.065 285.985 102.729 287.689 102.729 289.694C102.729 292.315 101.727 294.412 99.7261 295.979C97.7221 297.545 94.9925 298.33 91.5316 298.33C88.0707 298.33 85.6091 297.623 83.6526 296.213C81.696 294.803 80.5434 292.877 80.1973 290.433L86.8901 289.314C86.9822 290.297 87.426 291.076 88.2298 291.651C89.0309 292.223 90.097 292.511 91.4256 292.511L91.4172 292.505Z" fill="#1D2126"/>
<path d="M107.231 260.373C107.231 259.152 107.658 258.119 108.515 257.27C109.372 256.424 110.418 256 111.655 256C112.891 256 113.941 256.424 114.795 257.27C115.651 258.116 116.078 259.152 116.078 260.373C116.078 261.593 115.651 262.682 114.795 263.528C113.938 264.374 112.891 264.798 111.655 264.798C110.418 264.798 109.369 264.374 108.515 263.528C107.658 262.682 107.231 261.629 107.231 260.373ZM115.342 269.827V297.59H108.021V269.827H115.342Z" fill="#1D2126"/>
<path d="M134.709 268.978C137.896 268.978 140.648 269.771 142.97 271.354C145.292 272.937 146.844 275.043 147.629 277.667L141.374 280.18C140.919 278.796 140.096 277.684 138.901 276.847C137.709 276.009 136.347 275.59 134.818 275.59C132.613 275.59 130.88 276.324 129.615 277.79C128.348 279.256 127.717 281.228 127.717 283.707C127.717 286.187 128.359 288.138 129.643 289.568C130.927 290.997 132.652 291.712 134.818 291.712C136.383 291.712 137.768 291.313 138.968 290.509C140.171 289.707 141.008 288.632 141.48 287.284L147.626 289.579C146.733 292.257 145.114 294.384 142.764 295.959C140.414 297.534 137.712 298.321 134.653 298.321C130.411 298.321 126.972 296.973 124.343 294.278C121.711 291.581 120.396 288.057 120.396 283.704C120.396 279.351 121.717 275.786 124.357 273.06C126.997 270.338 130.447 268.975 134.709 268.975V268.978Z" fill="#1D2126"/>
<path d="M26.0319 345.627H11.2004L7.94883 354.917H0L14.7785 313.905H22.5068L37.2546 354.92H29.1439L26.0291 345.63L26.0319 345.627ZM23.7935 339.261L18.6301 324.261L13.4416 339.261H23.7935Z" fill="#1D2126"/>
<path d="M50.8889 349.835C52.1281 349.835 53.1021 349.595 53.8111 349.112C54.52 348.629 54.8772 347.934 54.8772 347.021C54.8772 345.672 53.9757 344.778 52.1727 344.343L48.4858 343.332C45.6808 342.603 43.6378 341.556 42.3539 340.191C41.07 338.825 40.4281 337.15 40.4281 335.162C40.4281 332.54 41.3743 330.407 43.2694 328.768C45.1617 327.129 47.721 326.308 50.9447 326.308C53.7859 326.308 56.1611 326.959 58.073 328.263C59.9848 329.566 61.1487 331.365 61.5701 333.66L55.0419 335.162C54.933 334.252 54.5228 333.531 53.8139 333.004C53.1049 332.476 52.2202 332.211 51.1652 332.211C50.0543 332.211 49.1808 332.462 48.5444 332.962C47.908 333.462 47.5899 334.16 47.5899 335.053C47.5899 335.726 47.8355 336.282 48.3267 336.72C48.8179 337.159 49.6189 337.53 50.7298 337.84L54.3637 338.798C56.9314 339.47 58.8796 340.509 60.2081 341.914C61.5366 343.315 62.2009 345.019 62.2009 347.023C62.2009 349.645 61.1989 351.742 59.1977 353.309C57.1938 354.875 54.4642 355.66 51.0033 355.66C47.5424 355.66 45.0807 354.953 43.1242 353.543C41.1677 352.133 40.015 350.206 39.6689 347.763L46.3618 346.644C46.4539 347.626 46.8977 348.406 47.7015 348.981C48.5025 349.553 49.5687 349.841 50.8972 349.841L50.8889 349.835Z" fill="#1D2126"/>
<path d="M76.8342 349.835C78.0734 349.835 79.0475 349.595 79.7564 349.112C80.4653 348.629 80.8226 347.934 80.8226 347.021C80.8226 345.672 79.9211 344.778 78.1181 344.343L74.4311 343.332C71.6261 342.603 69.5831 341.556 68.2992 340.191C67.0154 338.825 66.3734 337.15 66.3734 335.162C66.3734 332.54 67.3196 330.407 69.2147 328.768C71.107 327.129 73.6664 326.308 76.89 326.308C79.7313 326.308 82.1064 326.959 84.0183 328.263C85.9301 329.566 87.094 331.365 87.5154 333.66L80.9872 335.162C80.8784 334.252 80.4681 333.531 79.7592 333.004C79.0503 332.476 78.1655 332.211 77.1105 332.211C75.9997 332.211 75.1261 332.462 74.4897 332.962C73.8534 333.462 73.5352 334.16 73.5352 335.053C73.5352 335.726 73.7808 336.282 74.272 336.72C74.7632 337.159 75.5643 337.53 76.6751 337.84L80.309 338.798C82.8767 339.47 84.8249 340.509 86.1534 341.914C87.4819 343.315 88.1462 345.019 88.1462 347.023C88.1462 349.645 87.1442 351.742 85.1431 353.309C83.1391 354.875 80.4095 355.66 76.9486 355.66C73.4877 355.66 71.0261 354.953 69.0695 353.543C67.113 352.133 65.9603 350.206 65.6143 347.763L72.3071 346.644C72.3992 347.626 72.843 348.406 73.6468 348.981C74.4479 349.553 75.514 349.841 76.8426 349.841L76.8342 349.835Z" fill="#1D2126"/>
<path d="M92.6482 317.702C92.6482 316.482 93.0752 315.449 93.9321 314.6C94.7889 313.754 95.8355 313.33 97.072 313.33C98.3084 313.33 99.3578 313.754 100.212 314.6C101.069 315.446 101.496 316.482 101.496 317.702C101.496 318.923 101.069 320.012 100.212 320.858C99.355 321.704 98.3084 322.128 97.072 322.128C95.8355 322.128 94.7861 321.704 93.9321 320.858C93.0752 320.012 92.6482 318.959 92.6482 317.702ZM100.762 327.157V354.92H93.4408V327.157H100.762Z" fill="#1D2126"/>
<path d="M117.259 349.835C118.499 349.835 119.473 349.595 120.182 349.112C120.891 348.629 121.248 347.934 121.248 347.021C121.248 345.672 120.346 344.778 118.543 344.343L114.856 343.332C112.051 342.603 110.008 341.556 108.725 340.191C107.441 338.825 106.799 337.15 106.799 335.162C106.799 332.54 107.745 330.407 109.64 328.768C111.532 327.129 114.092 326.308 117.315 326.308C120.157 326.308 122.532 326.959 124.444 328.263C126.355 329.566 127.519 331.365 127.941 333.66L121.413 335.162C121.304 334.252 120.893 333.531 120.184 333.004C119.476 332.476 118.591 332.211 117.536 332.211C116.425 332.211 115.551 332.462 114.915 332.962C114.279 333.462 113.96 334.16 113.96 335.053C113.96 335.726 114.206 336.282 114.697 336.72C115.189 337.159 115.99 337.53 117.1 337.84L120.734 338.798C123.302 339.47 125.25 340.509 126.579 341.914C127.907 343.315 128.571 345.019 128.571 347.023C128.571 349.645 127.57 351.742 125.568 353.309C123.564 354.875 120.835 355.66 117.374 355.66C113.913 355.66 111.451 354.953 109.495 353.543C107.538 352.133 106.386 350.206 106.04 347.763L112.732 346.644C112.825 347.626 113.268 348.406 114.072 348.981C114.873 349.553 115.939 349.841 117.268 349.841L117.259 349.835Z" fill="#1D2126"/>
<path d="M149.434 354.917C147.651 355.372 145.965 355.601 144.383 355.601C141.416 355.601 139.116 354.805 137.486 353.211C135.856 351.617 135.041 349.199 135.041 345.957V333.442H130.807V327.157H135.041V318.548H142.25V327.157H148.642V333.442H142.25V344.617C142.195 347.604 143.37 349.098 145.773 349.098C146.629 349.098 147.567 348.933 148.586 348.607L149.432 354.92L149.434 354.917Z" fill="#1D2126"/>
<path d="M171.802 354.917C171.637 354.043 171.5 353.096 171.391 352.074C170.607 353.149 169.502 354.015 168.073 354.671C166.644 355.327 165.008 355.654 163.169 355.654C160.146 355.654 157.71 354.844 155.862 353.222C154.014 351.6 153.091 349.405 153.091 346.638C153.091 343.871 153.986 341.743 155.781 340.202C157.573 338.663 160.037 337.893 163.169 337.893H171.227V336.963C171.227 335.36 170.744 334.168 169.778 333.383C168.812 332.602 167.464 332.208 165.737 332.208C162.678 332.208 160.484 333.512 159.155 336.114L153.83 333.082C156.217 328.564 160.339 326.305 166.203 326.305C169.736 326.305 172.639 327.227 174.916 329.064C177.191 330.904 178.33 333.892 178.33 338.027V348.657C178.33 351.681 178.503 353.767 178.849 354.914H171.802V354.917ZM171.282 342.894H164.919C163.518 342.894 162.429 343.218 161.656 343.863C160.883 344.51 160.495 345.398 160.495 346.526C160.495 347.654 160.9 348.567 161.709 349.204C162.519 349.843 163.663 350.162 165.137 350.162C166.94 350.162 168.413 349.615 169.56 348.523C170.708 347.431 171.282 345.736 171.282 343.441V342.894Z" fill="#1D2126"/>
<path d="M210.887 337.84V354.917H203.594V339.423C203.594 336.89 203.022 335.187 201.872 334.313C200.705 333.42 199.413 332.976 197.992 332.976C196.334 332.976 194.869 333.476 193.596 334.478C192.285 335.517 191.629 337.22 191.629 339.588V354.917H184.364V327.157H191.246L191.464 329.916C192.246 328.824 193.37 327.947 194.838 327.294C196.304 326.637 197.883 326.311 199.578 326.311C203.164 326.311 205.947 327.319 207.923 329.329C209.899 331.342 210.887 334.179 210.887 337.84Z" fill="#1D2126"/>
<path d="M233.039 354.917C231.256 355.372 229.57 355.601 227.988 355.601C225.021 355.601 222.721 354.805 221.091 353.211C219.461 351.617 218.646 349.199 218.646 345.957V333.442H214.412V327.157H218.646V318.548H225.855V327.157H232.247V333.442H225.855V344.617C225.799 347.604 226.975 349.098 229.378 349.098C230.234 349.098 231.172 348.933 232.191 348.607L233.037 354.92L233.039 354.917Z" fill="#1D2126"/>
</svg>
