<svg width="924" height="506" viewBox="0 0 924 506" fill="none" xmlns="http://www.w3.org/2000/svg">
<path d="M130.992 4.56406C124.939 -1.52135 115.034 -1.52135 109.008 4.56406L11.0056 103.09C4.95251 109.175 0 121.188 0 129.776V219.134C0 227.722 6.9964 234.783 15.565 234.783H224.435C232.977 234.783 240 227.749 240 219.134V129.776C240 121.188 235.048 109.175 228.994 103.09L130.992 4.56406Z" fill="#18BCF2"/>
<path d="M228 274.783C234.627 274.783 240 280.155 240 286.783V343.783C240 350.41 234.627 355.783 228 355.783H213C206.373 355.783 201 350.41 201 343.783V313.783H39V343.783C39 350.41 33.6274 355.783 27 355.783H12C5.37258 355.783 0 350.41 0 343.783V286.783C0 280.155 5.37258 274.783 12 274.783H228Z" fill="#09202E"/>
<path fill-rule="evenodd" clip-rule="evenodd" d="M399.838 0C411.555 0 422.412 2.1107 432.407 6.35938C442.403 10.5802 450.871 16.4394 457.812 23.9092C464.754 31.3791 470.168 40.3211 474.056 50.79C477.915 61.2589 479.859 72.5609 479.859 84.7236C479.998 96.7475 478.11 108.022 474.223 118.602C470.308 129.182 464.837 138.206 457.812 145.704C450.788 153.202 442.237 159.089 432.186 163.338C422.134 167.614 411.278 169.669 399.616 169.53C384.206 169.752 370.351 166.198 358.078 158.895C345.806 151.591 336.338 141.455 329.674 128.487C323.01 115.519 319.789 100.996 320.011 84.9453C319.872 72.9215 321.76 61.6473 325.647 51.0674C329.562 40.4873 335.005 31.4624 342.002 23.9092C348.999 16.3838 357.495 10.4684 367.519 6.21973C377.542 1.97111 388.315 -0.111497 399.838 0.0273438V0ZM891.099 114.159V2.94336H924.001V166.837H891.099C863.069 123.491 847.354 99.1891 819.324 55.8438V166.837H786.422V2.94336H819.324L891.099 114.159ZM570.542 2.91602C587.701 2.91602 601.14 7.74753 610.886 17.4111C620.631 27.0747 625.49 40.3204 625.49 57.0928V57.1211C625.49 73.5602 620.521 86.7781 610.608 96.8027C600.696 106.827 587.201 111.854 570.098 111.854H537.64V166.809H504.515V2.91602H570.542ZM751.992 34.4062H681.938V69.3672H744.162V98.6914H681.938V135.624H751.992V166.809H648.842V2.91602H751.992V34.4062ZM400.032 32.2676C386.122 32.2676 375.154 36.9333 367.13 46.2637C359.106 55.5941 355.079 68.4233 355.079 84.7236C355.079 101.024 359.106 113.825 367.13 123.128C375.154 132.431 386.122 137.096 400.032 137.096V137.068C413.86 137.068 424.799 132.375 432.879 123.017C440.959 113.631 444.985 100.885 444.985 84.7236C444.985 68.5621 440.959 55.6219 432.935 46.2637C424.91 36.9332 413.943 32.2676 400.032 32.2676ZM537.64 83.002H564.128C572.735 83.002 579.288 80.5581 583.786 75.6709C588.284 70.7835 590.506 64.3962 590.506 56.5098V56.4824C590.506 49.5401 588.256 43.792 583.73 39.2656C579.205 34.7393 572.68 32.4893 564.128 32.4893H537.64V83.002Z" fill="#18BCF2"/>
<path d="M320 199.761H351.064V261.898L411.969 262.107V199.761H443.242V353.465H411.969V289.816L351.064 289.4V353.465H320V199.761Z" fill="#18BCF2"/>
<path d="M540.992 197C551.98 197 562.161 198.979 571.535 202.964C580.909 206.922 588.851 212.417 595.361 219.423C601.871 226.428 606.948 234.814 610.594 244.632C614.213 254.45 616.036 265.05 616.036 276.456C616.166 287.733 614.395 298.306 610.75 308.228C607.079 318.151 601.949 326.615 595.361 333.646C588.773 340.678 580.753 346.199 571.327 350.183C561.901 354.194 551.72 356.121 540.784 355.991C526.332 356.199 513.338 352.866 501.829 346.016C490.32 339.167 481.441 329.662 475.192 317.5C468.942 305.338 465.922 291.717 466.13 276.665C466 265.388 467.771 254.815 471.416 244.893C475.088 234.97 480.191 226.506 486.753 219.423C493.315 212.365 501.283 206.818 510.683 202.834C520.083 198.849 530.186 196.896 540.992 197.026V197ZM541.174 325.547C554.142 325.547 564.401 321.146 571.978 312.369C579.555 303.567 583.331 291.613 583.331 276.456C583.331 261.299 579.556 249.164 572.03 240.387C564.505 231.637 554.22 227.262 541.174 227.262C528.129 227.262 517.843 231.637 510.318 240.387C502.793 249.138 499.017 261.169 499.017 276.456C499.017 291.743 502.793 303.749 510.318 312.473C517.843 321.198 528.129 325.573 541.174 325.573V325.547Z" fill="#18BCF2"/>
<path d="M794.246 199.761V353.465H763.598V269.425L730.711 353.465H701.287L668.791 270.05V353.465H639.158V199.761H668.791L716.051 317.187L763.598 199.761H794.246Z" fill="#18BCF2"/>
<path d="M923.581 353.439H826.847V199.734H923.581V229.267H857.885V262.055H916.238V289.556H857.885V324.193H923.581V353.439Z" fill="#18BCF2"/>
<path d="M16.1891 413.048V444.904H56.9856V459.454H16.1891V503.87H0V397.731H64.6843V413.048H16.1891Z" fill="#09202E"/>
<path d="M126.443 396.005C133.806 395.909 140.713 397.251 147.117 400.008C153.52 402.764 158.989 406.576 163.498 411.442C167.983 416.307 171.508 422.156 174.05 428.94C176.593 435.747 177.816 443.01 177.72 450.753C177.816 458.543 176.593 465.878 174.05 472.709C171.508 479.565 167.983 485.389 163.498 490.255C159.013 495.097 153.544 498.909 147.117 501.665C140.689 504.422 133.806 505.764 126.443 505.668C119.08 505.764 112.196 504.422 105.793 501.665C99.3889 498.909 93.9446 495.097 89.4596 490.231C84.9746 485.365 81.449 479.517 78.9307 472.733C76.4124 465.95 75.1892 458.663 75.2852 450.92C75.1892 443.178 76.4124 435.891 78.9307 429.084C81.449 422.276 84.9506 416.427 89.4596 411.537C93.9446 406.671 99.3889 402.836 105.793 400.056C112.196 397.275 119.08 395.933 126.443 396.029V396.005ZM101.739 479.013C107.999 486.109 116.273 489.68 126.587 489.68C136.9 489.68 145.174 486.132 151.41 479.013C157.646 471.918 160.763 462.498 160.763 450.753C160.763 439.007 157.646 429.515 151.41 422.42C145.174 415.325 136.9 411.753 126.587 411.753C116.273 411.753 107.975 415.325 101.739 422.444C95.4795 429.563 92.3616 439.007 92.3616 450.753C92.3616 462.498 95.4795 471.918 101.739 479.013Z" fill="#09202E"/>
<path d="M210.962 397.707V465.566C211.009 473.644 213.384 479.756 218.085 483.879C222.786 488.026 228.973 490.088 236.624 490.088C244.275 490.088 250.127 487.906 255.02 483.568C259.912 479.229 262.359 473.213 262.359 465.566V397.707H278.548V466.213C278.548 472.446 277.421 478.079 275.19 483.136C272.96 488.194 269.914 492.365 266.1 495.601C262.263 498.861 257.85 501.354 252.789 503.127C247.729 504.901 242.356 505.764 236.6 505.764C230.844 505.764 225.688 504.901 220.699 503.199C215.71 501.497 211.249 499.028 207.364 495.816C203.455 492.604 200.385 488.458 198.13 483.352C195.876 478.246 194.748 472.517 194.748 466.213V397.707H210.962Z" fill="#09202E"/>
<path d="M386.787 397.707V503.846H370.598L318.241 423.858V503.846H302.052V397.707H318.241L370.598 477.839V397.707H386.787Z" fill="#09202E"/>
<path d="M499.918 450.896C499.966 458.495 498.647 465.638 495.961 472.278C493.275 478.941 489.557 484.598 484.833 489.249C480.108 493.899 474.424 497.542 467.78 500.155C461.137 502.768 454.061 504.014 446.483 503.87H411.106V397.731H446.483C456.46 397.587 465.574 399.792 473.776 404.37C481.979 408.925 488.406 415.301 493.059 423.475C497.712 431.648 499.99 440.805 499.918 450.92V450.896ZM482.722 450.896C482.722 439.678 479.388 430.57 472.697 423.57C466.005 416.571 457.227 413.048 446.339 413.048H427.439V488.817H446.339C457.323 488.817 466.125 485.341 472.769 478.366C479.412 471.415 482.722 462.234 482.722 450.896Z" fill="#09202E"/>
<path d="M571.006 478.342H528.627L519.417 503.87H502.797L541.171 397.731H558.583L597.173 503.87H580.048L570.982 478.342H571.006ZM566.306 464.583L549.973 418.321L533.496 464.583H566.306Z" fill="#09202E"/>
<path d="M669.868 413.048H639.049V503.87H622.716V413.048H591.896V397.731H669.844V413.048H669.868Z" fill="#09202E"/>
<path d="M684.498 503.846V397.707H700.831V503.846H684.498Z" fill="#09202E"/>
<path d="M769.928 396.005C777.291 395.909 784.198 397.251 790.602 400.008C797.03 402.764 802.474 406.576 806.983 411.442C811.468 416.307 814.994 422.156 817.536 428.94C820.078 435.747 821.301 443.01 821.205 450.753C821.301 458.543 820.078 465.878 817.536 472.709C814.994 479.565 811.468 485.389 806.983 490.255C802.498 495.097 797.03 498.909 790.602 501.665C784.174 504.422 777.291 505.764 769.928 505.668C762.565 505.764 755.682 504.422 749.278 501.665C742.874 498.909 737.43 495.097 732.945 490.231C728.46 485.365 724.934 479.517 722.416 472.733C719.898 465.95 718.675 458.663 718.771 450.92C718.675 443.178 719.898 435.891 722.416 429.084C724.934 422.276 728.436 416.427 732.945 411.537C737.43 406.671 742.874 402.836 749.278 400.056C755.682 397.275 762.565 395.933 769.928 396.029V396.005ZM745.225 479.013C751.484 486.109 759.759 489.68 770.072 489.68C780.385 489.68 788.659 486.132 794.895 479.013C801.131 471.918 804.249 462.498 804.249 450.753C804.249 439.007 801.131 429.515 794.895 422.42C788.659 415.325 780.385 411.753 770.072 411.753C759.759 411.753 751.46 415.325 745.225 422.444C738.965 429.563 735.847 439.007 735.847 450.753C735.847 462.498 738.965 471.918 745.225 479.013Z" fill="#09202E"/>
<path d="M924 397.707V503.846H907.811L855.454 423.858V503.846H839.265V397.707H855.454L907.811 477.839V397.707H924Z" fill="#09202E"/>
</svg>
