<svg width="924" height="506" viewBox="0 0 924 506" fill="none" xmlns="http://www.w3.org/2000/svg">
<path d="M130.992 4.56406C124.939 -1.52135 115.034 -1.52135 109.008 4.56406L11.0056 103.09C4.95251 109.175 0 121.188 0 129.776V219.134C0 227.722 6.9964 234.783 15.565 234.783H224.435C232.977 234.783 240 227.749 240 219.134V129.776C240 121.188 235.048 109.175 228.994 103.09L130.992 4.56406Z" fill="#F7F6F2"/>
<path d="M228 274.783C234.627 274.783 240 280.155 240 286.783V343.783C240 350.41 234.627 355.783 228 355.783H213C206.373 355.783 201 350.41 201 343.783V313.783H39V343.783C39 350.41 33.6274 355.783 27 355.783H12C5.37258 355.783 0 350.41 0 343.783V286.783C0 280.155 5.37258 274.783 12 274.783H228Z" fill="#F7F6F2"/>
<path fill-rule="evenodd" clip-rule="evenodd" d="M395.498 0C407.312 0 418.259 2.12832 428.337 6.41211C438.415 10.668 446.954 16.5757 453.953 24.1074C460.952 31.6391 466.412 40.6544 470.331 51.21C474.223 61.7655 476.182 73.1613 476.182 85.4248C476.322 97.5484 474.419 108.916 470.499 119.584C466.552 130.252 461.036 139.351 453.953 146.911C446.87 154.471 438.248 160.407 428.113 164.69C417.979 169.002 407.033 171.074 395.275 170.934C379.737 171.158 365.767 167.574 353.393 160.21C341.019 152.846 331.472 142.627 324.753 129.552C318.034 116.476 314.787 101.833 315.011 85.6494C314.871 73.5258 316.775 62.1579 320.694 51.4902C324.642 40.8227 330.129 31.7231 337.184 24.1074C344.239 16.5197 352.805 10.5553 362.911 6.27148C373.018 1.98767 383.88 -0.111634 395.498 0.0283203V0ZM890.825 115.104V2.96777H924.001V168.218H890.825C862.564 124.514 846.719 100.01 818.457 56.3057V168.218H785.282V2.96777H818.457L890.825 115.104ZM567.615 2.93945C584.917 2.93945 598.467 7.81207 608.293 17.5557C618.12 27.2993 623.02 40.655 623.02 57.5664V57.5938C623.02 74.1691 618.008 87.4969 608.014 97.6045C598.019 107.712 584.413 112.78 567.168 112.78H534.441V168.19H501.042V2.93945H567.615ZM750.567 34.6904H679.935V69.9414H742.673V99.5088H679.935V136.747H750.567V168.19H646.564V2.93945H750.567V34.6904ZM395.694 32.5352C381.669 32.5352 370.61 37.2388 362.52 46.6465C354.429 56.0541 350.369 68.9895 350.369 85.4248C350.369 101.86 354.429 114.768 362.52 124.147C370.61 133.527 381.669 138.231 395.694 138.231V138.203C409.636 138.203 420.667 133.471 428.814 124.035C436.96 114.572 441.02 101.72 441.02 85.4248C441.02 69.1295 436.96 56.0821 428.869 46.6465C420.778 37.2388 409.72 32.5352 395.694 32.5352ZM534.441 83.6895H561.149C569.827 83.6895 576.435 81.2247 580.97 76.2969C585.505 71.3691 587.744 64.9291 587.744 56.9775V56.9502C587.744 49.9506 585.477 44.1546 580.914 39.5908C576.351 35.027 569.771 32.7588 561.149 32.7588H534.441V83.6895Z" fill="#F7F6F2"/>
<path d="M320.42 199.761H351.484V261.898L412.389 262.107V199.761H443.662V353.465H412.389V289.816L351.484 289.4V353.465H320.42V199.761Z" fill="#F7F6F2"/>
<path d="M541.412 197C552.4 197 562.581 198.979 571.955 202.964C581.329 206.922 589.271 212.417 595.781 219.423C602.291 226.428 607.368 234.814 611.014 244.632C614.633 254.45 616.456 265.05 616.456 276.456C616.586 287.733 614.815 298.306 611.17 308.228C607.498 318.151 602.369 326.615 595.781 333.646C589.193 340.678 581.173 346.199 571.747 350.183C562.321 354.194 552.14 356.121 541.203 355.991C526.752 356.199 513.758 352.866 502.249 346.016C490.74 339.167 481.861 329.662 475.612 317.5C469.362 305.338 466.342 291.717 466.55 276.665C466.42 265.388 468.191 254.815 471.836 244.893C475.507 234.97 480.611 226.506 487.173 219.423C493.735 212.365 501.703 206.818 511.103 202.834C520.503 198.849 530.606 196.896 541.412 197.026V197ZM541.594 325.547C554.561 325.547 564.821 321.146 572.398 312.369C579.975 303.567 583.751 291.613 583.751 276.456C583.751 261.299 579.975 249.164 572.45 240.387C564.925 231.637 554.64 227.262 541.594 227.262C528.549 227.262 518.263 231.637 510.738 240.387C503.213 249.138 499.437 261.169 499.437 276.456C499.437 291.743 503.213 303.749 510.738 312.473C518.263 321.198 528.549 325.573 541.594 325.573V325.547Z" fill="#F7F6F2"/>
<path d="M794.666 199.761V353.465H764.018V269.425L731.131 353.465H701.707L669.211 270.05V353.465H639.578V199.761H669.211L716.471 317.187L764.018 199.761H794.666Z" fill="#F7F6F2"/>
<path d="M924.001 353.439H827.267V199.734H924.001V229.267H858.305V262.055H916.658V289.556H858.305V324.193H924.001V353.439Z" fill="#F7F6F2"/>
<path d="M16.1891 413.048V444.904H56.9856V459.454H16.1891V503.87H0V397.731H64.6843V413.048H16.1891Z" fill="#F7F6F2"/>
<path d="M126.443 396.005C133.806 395.909 140.713 397.251 147.117 400.008C153.52 402.764 158.989 406.576 163.498 411.442C167.983 416.307 171.508 422.156 174.05 428.94C176.593 435.747 177.816 443.01 177.72 450.753C177.816 458.543 176.593 465.878 174.05 472.709C171.508 479.565 167.983 485.389 163.498 490.255C159.013 495.097 153.544 498.909 147.117 501.665C140.689 504.422 133.806 505.764 126.443 505.668C119.08 505.764 112.196 504.422 105.793 501.665C99.3889 498.909 93.9446 495.097 89.4596 490.231C84.9746 485.365 81.449 479.517 78.9307 472.733C76.4124 465.95 75.1892 458.663 75.2852 450.92C75.1892 443.178 76.4124 435.891 78.9307 429.084C81.449 422.276 84.9506 416.427 89.4596 411.537C93.9446 406.671 99.3889 402.836 105.793 400.056C112.196 397.275 119.08 395.933 126.443 396.029V396.005ZM101.739 479.013C107.999 486.109 116.273 489.68 126.587 489.68C136.9 489.68 145.174 486.132 151.41 479.013C157.646 471.918 160.763 462.498 160.763 450.753C160.763 439.007 157.646 429.515 151.41 422.42C145.174 415.325 136.9 411.753 126.587 411.753C116.273 411.753 107.975 415.325 101.739 422.444C95.4795 429.563 92.3616 439.007 92.3616 450.753C92.3616 462.498 95.4795 471.918 101.739 479.013Z" fill="#F7F6F2"/>
<path d="M210.962 397.707V465.566C211.009 473.644 213.384 479.756 218.085 483.879C222.786 488.026 228.973 490.088 236.624 490.088C244.275 490.088 250.127 487.906 255.02 483.568C259.912 479.229 262.359 473.213 262.359 465.566V397.707H278.548V466.213C278.548 472.446 277.421 478.079 275.19 483.136C272.96 488.194 269.914 492.365 266.1 495.601C262.263 498.861 257.85 501.354 252.789 503.127C247.729 504.901 242.356 505.764 236.6 505.764C230.844 505.764 225.688 504.901 220.699 503.199C215.71 501.497 211.249 499.028 207.364 495.816C203.455 492.604 200.385 488.458 198.13 483.352C195.876 478.246 194.748 472.517 194.748 466.213V397.707H210.962Z" fill="#F7F6F2"/>
<path d="M386.787 397.707V503.846H370.598L318.241 423.858V503.846H302.052V397.707H318.241L370.598 477.839V397.707H386.787Z" fill="#F7F6F2"/>
<path d="M499.918 450.896C499.966 458.495 498.647 465.638 495.961 472.278C493.275 478.941 489.557 484.598 484.833 489.249C480.108 493.899 474.424 497.542 467.78 500.155C461.137 502.768 454.061 504.014 446.483 503.87H411.106V397.731H446.483C456.46 397.587 465.574 399.792 473.776 404.37C481.979 408.925 488.406 415.301 493.059 423.475C497.712 431.648 499.99 440.805 499.918 450.92V450.896ZM482.722 450.896C482.722 439.678 479.388 430.57 472.697 423.57C466.005 416.571 457.227 413.048 446.339 413.048H427.439V488.817H446.339C457.323 488.817 466.125 485.341 472.769 478.366C479.412 471.415 482.722 462.234 482.722 450.896Z" fill="#F7F6F2"/>
<path d="M571.006 478.342H528.627L519.417 503.87H502.797L541.171 397.731H558.583L597.173 503.87H580.048L570.982 478.342H571.006ZM566.306 464.583L549.973 418.321L533.496 464.583H566.306Z" fill="#F7F6F2"/>
<path d="M669.868 413.048H639.049V503.87H622.716V413.048H591.896V397.731H669.844V413.048H669.868Z" fill="#F7F6F2"/>
<path d="M684.498 503.846V397.707H700.831V503.846H684.498Z" fill="#F7F6F2"/>
<path d="M769.928 396.005C777.291 395.909 784.198 397.251 790.602 400.008C797.03 402.764 802.474 406.576 806.983 411.442C811.468 416.307 814.994 422.156 817.536 428.94C820.078 435.747 821.301 443.01 821.205 450.753C821.301 458.543 820.078 465.878 817.536 472.709C814.994 479.565 811.468 485.389 806.983 490.255C802.498 495.097 797.03 498.909 790.602 501.665C784.174 504.422 777.291 505.764 769.928 505.668C762.565 505.764 755.682 504.422 749.278 501.665C742.874 498.909 737.43 495.097 732.945 490.231C728.46 485.365 724.934 479.517 722.416 472.733C719.898 465.95 718.675 458.663 718.771 450.92C718.675 443.178 719.898 435.891 722.416 429.084C724.934 422.276 728.436 416.427 732.945 411.537C737.43 406.671 742.874 402.836 749.278 400.056C755.682 397.275 762.565 395.933 769.928 396.029V396.005ZM745.225 479.013C751.484 486.109 759.759 489.68 770.072 489.68C780.385 489.68 788.659 486.132 794.895 479.013C801.131 471.918 804.249 462.498 804.249 450.753C804.249 439.007 801.131 429.515 794.895 422.42C788.659 415.325 780.385 411.753 770.072 411.753C759.759 411.753 751.46 415.325 745.225 422.444C738.965 429.563 735.847 439.007 735.847 450.753C735.847 462.498 738.965 471.918 745.225 479.013Z" fill="#F7F6F2"/>
<path d="M924 397.707V503.846H907.811L855.454 423.858V503.846H839.265V397.707H855.454L907.811 477.839V397.707H924Z" fill="#F7F6F2"/>
</svg>
