<svg width="240" height="240" viewBox="0 0 240 240" fill="none" xmlns="http://www.w3.org/2000/svg">
<path d="M240 218.762C240 227.012 233.25 233.762 225 233.762H15C6.75 233.762 0 227.012 0 218.762V128.762C0 120.512 4.77 108.993 10.61 103.153L109.39 4.3725C115.22 -1.4575 124.77 -1.4575 130.6 4.3725L229.39 103.162C235.22 108.993 240 120.522 240 128.772V218.772V218.762Z" fill="#F2F4F9"/>
<path d="M229.39 103.153L130.61 4.3725C124.78 -1.4575 115.23 -1.4575 109.4 4.3725L10.61 103.153C4.78 108.983 0 120.512 0 128.762V218.762C0 227.012 6.75 233.762 15 233.762H107.27L66.64 193.132C64.55 193.852 62.32 194.262 60 194.262C48.7 194.262 39.5 185.062 39.5 173.762C39.5 162.462 48.7 153.262 60 153.262C71.3 153.262 80.5 162.462 80.5 173.762C80.5 176.092 80.09 178.322 79.37 180.412L111 212.042V96.1625C104.2 92.8225 99.5 85.8425 99.5 77.7725C99.5 66.4725 108.7 57.2725 120 57.2725C131.3 57.2725 140.5 66.4725 140.5 77.7725C140.5 85.8425 135.8 92.8225 129 96.1625V177.432L160.46 145.972C159.84 144.012 159.5 141.932 159.5 139.772C159.5 128.472 168.7 119.272 180 119.272C191.3 119.272 200.5 128.472 200.5 139.772C200.5 151.072 191.3 160.272 180 160.272C177.5 160.272 175.12 159.803 172.91 158.982L129 202.892V233.772H225C233.25 233.772 240 227.022 240 218.772V128.772C240 120.522 235.23 109.003 229.39 103.162V103.153Z" fill="#18BCF2"/>
</svg>
