<svg width="240" height="240" viewBox="0 0 240 240" fill="none" xmlns="http://www.w3.org/2000/svg">
<g clip-path="url(#clip0_185_259)">
<g clip-path="url(#clip1_185_259)">
<path d="M109.4 4.62012C115.24 -1.21973 124.78 -1.21983 130.62 4.62012L229.4 103.4C235.24 109.241 240 120.76 240 129V219C240 227.24 233.24 234 225 234H86V90.6602H154V102.66H104C100.68 102.66 98 105.34 98 108.66V132.66C98.0001 135.98 100.68 138.66 104 138.66H154V150.66H104C100.68 150.66 98 153.34 98 156.66V180.66C98.0001 183.98 100.68 186.66 104 186.66H154V198.66H104C100.68 198.66 98 201.34 98 204.66C98.0001 207.98 100.68 210.66 104 210.66H160C163.32 210.66 166 207.98 166 204.66V180.66C166 177.34 163.32 174.66 160 174.66H110V162.66H160C163.32 162.66 166 159.98 166 156.66V132.66C166 129.34 163.32 126.66 160 126.66H110V114.66H160C163.32 114.66 166 111.98 166 108.66V84.6602C166 81.3402 163.32 78.6602 160 78.6602H80C76.68 78.6602 74 81.3402 74 84.6602V234H15C6.76 234 0 227.24 0 219V129C1.41063e-05 120.76 4.77978 109.22 10.5996 103.4L109.4 4.62012Z" fill="#1D2126"/>
</g>
</g>
<defs>
<clipPath id="clip0_185_259">
<rect width="240" height="240" fill="white"/>
</clipPath>
<clipPath id="clip1_185_259">
<rect width="240" height="240" fill="white"/>
</clipPath>
</defs>
</svg>
