<svg width="240" height="357" viewBox="0 0 240 357" fill="none" xmlns="http://www.w3.org/2000/svg">
<path d="M229.39 103.153L130.61 4.3725C124.78 -1.4575 115.23 -1.4575 109.4 4.3725L10.61 103.153C4.78 108.983 0 120.512 0 128.762V218.762C0 227.012 6.75 233.762 15 233.762H107.27L66.64 193.132C64.55 193.852 62.32 194.262 60 194.262C48.7 194.262 39.5 185.062 39.5 173.762C39.5 162.462 48.7 153.262 60 153.262C71.3 153.262 80.5 162.462 80.5 173.762C80.5 176.092 80.09 178.322 79.37 180.412L111 212.042V96.1625C104.2 92.8225 99.5 85.8425 99.5 77.7725C99.5 66.4725 108.7 57.2725 120 57.2725C131.3 57.2725 140.5 66.4725 140.5 77.7725C140.5 85.8425 135.8 92.8225 129 96.1625V177.432L160.46 145.972C159.84 144.012 159.5 141.932 159.5 139.772C159.5 128.472 168.7 119.272 180 119.272C191.3 119.272 200.5 128.472 200.5 139.772C200.5 151.072 191.3 160.272 180 160.272C177.5 160.272 175.12 159.803 172.91 158.982L129 202.892V233.772H225C233.25 233.772 240 227.022 240 218.772V128.772C240 120.522 235.23 109.003 229.39 103.162V103.153Z" fill="#1D2126"/>
<path d="M4.08008 256H11.2241V273.576L29.7601 273.632V256H36.9601V298.048H29.7601V279.96L11.2241 279.904V298.048H4.08008V256Z" fill="#1D2126"/>
<path d="M57.864 268.856C62.216 268.856 65.76 270.256 68.496 273.048C71.232 275.84 72.6 279.432 72.6 283.816C72.6 288.2 71.232 291.768 68.496 294.56C65.76 297.352 62.216 298.752 57.864 298.752C53.512 298.752 49.912 297.352 47.176 294.56C44.44 291.768 43.072 288.184 43.072 283.816C43.072 279.448 44.44 275.816 47.176 273.032C49.912 270.248 53.48 268.856 57.864 268.856ZM57.864 292.624C60.192 292.624 62.08 291.8 63.528 290.16C64.984 288.52 65.704 286.384 65.704 283.76C65.704 281.136 64.976 279.008 63.528 277.392C62.072 275.768 60.184 274.96 57.864 274.96C55.544 274.96 53.56 275.768 52.096 277.392C50.632 279.016 49.904 281.136 49.904 283.76C49.904 286.384 50.632 288.52 52.096 290.16C53.56 291.8 55.48 292.624 57.864 292.624Z" fill="#1D2126"/>
<path d="M121.192 279.96V298.048H114.584V281.008C114.584 279.04 114.08 277.504 113.064 276.392C112.048 275.28 110.672 274.736 108.928 274.736C107.072 274.736 105.592 275.344 104.488 276.552C103.384 277.76 102.832 279.456 102.832 281.632V298.056H96.136V281.016C96.136 279.048 95.64 277.512 94.656 276.4C93.672 275.288 92.304 274.744 90.56 274.744C88.704 274.744 87.216 275.352 86.088 276.56C84.96 277.768 84.4 279.464 84.4 281.64V298.064H77.592V269.656H83.92L84.144 272.384C85.792 269.968 88.488 268.752 92.216 268.752C94.392 268.752 96.272 269.2 97.872 270.104C99.464 271 100.672 272.32 101.504 274.04C102.2 272.392 103.344 271.096 104.952 270.16C106.56 269.224 108.464 268.752 110.672 268.752C113.896 268.752 116.456 269.744 118.352 271.736C120.248 273.72 121.192 276.472 121.192 279.976V279.96Z" fill="#1D2126"/>
<path d="M154.2 286.344H132.432C132.656 288.48 133.464 290.112 134.848 291.24C136.232 292.368 138 292.928 140.136 292.928C143.608 292.928 146.032 291.488 147.424 288.6L153.104 290.848C152.032 293.344 150.352 295.288 148.056 296.696C145.76 298.104 143.12 298.808 140.136 298.808C135.936 298.808 132.528 297.432 129.912 294.688C127.296 291.944 125.992 288.336 125.992 283.872C125.992 279.408 127.312 275.784 129.944 272.984C132.576 270.192 136.024 268.792 140.28 268.792C144.536 268.792 147.824 270.168 150.376 272.928C152.928 275.688 154.2 279.312 154.2 283.816V286.344ZM132.544 281.56H147.28C147.152 279.256 146.448 277.496 145.184 276.288C143.92 275.08 142.216 274.472 140.08 274.472C137.944 274.472 136.24 275.088 134.904 276.312C133.576 277.544 132.784 279.288 132.544 281.56Z" fill="#1D2126"/>
<path d="M26.832 345.856H10.832L7.376 355.64H0L15.184 313.592H22.552L37.768 355.64H30.232L26.832 345.856ZM24.752 339.808L18.872 322.992L12.936 339.808H24.752Z" fill="#1D2126"/>
<path d="M51.1201 350.92C52.5281 350.92 53.6401 350.64 54.4561 350.088C55.2721 349.536 55.6801 348.712 55.6801 347.624C55.6801 346.104 54.6561 345.096 52.6161 344.584L48.7041 343.544C43.3201 342.08 40.6321 339.312 40.6321 335.248C40.6321 332.64 41.5761 330.512 43.4721 328.864C45.3681 327.216 47.9121 326.392 51.1201 326.392C53.9921 326.392 56.3921 327.048 58.3361 328.36C60.2801 329.672 61.4641 331.472 61.8961 333.76L55.7921 335.192C55.6641 334.16 55.1841 333.344 54.3681 332.744C53.5521 332.144 52.5441 331.848 51.3441 331.848C50.1441 331.848 49.1441 332.152 48.3921 332.76C47.6401 333.368 47.2641 334.16 47.2641 335.136C47.2641 335.92 47.5441 336.576 48.1041 337.104C48.6641 337.632 49.5361 338.048 50.7201 338.368L54.5761 339.328C57.1441 340.024 59.1041 341.072 60.4561 342.48C61.8081 343.888 62.4801 345.624 62.4801 347.68C62.4801 350.344 61.4801 352.464 59.4721 354.04C57.4641 355.616 54.7041 356.4 51.1761 356.4C47.9121 356.4 45.2961 355.68 43.3281 354.248C41.3601 352.816 40.2001 350.88 39.8401 348.44L46.0561 347.344C46.1681 348.472 46.6721 349.344 47.5601 349.976C48.4481 350.608 49.6401 350.92 51.1201 350.92Z" fill="#1D2126"/>
<path d="M76.92 350.92C78.328 350.92 79.44 350.64 80.256 350.088C81.072 349.536 81.48 348.712 81.48 347.624C81.48 346.104 80.456 345.096 78.416 344.584L74.504 343.544C69.12 342.08 66.432 339.312 66.432 335.248C66.432 332.64 67.376 330.512 69.272 328.864C71.168 327.216 73.712 326.392 76.92 326.392C79.792 326.392 82.192 327.048 84.136 328.36C86.08 329.672 87.264 331.472 87.696 333.76L81.592 335.192C81.464 334.16 80.984 333.344 80.168 332.744C79.352 332.144 78.344 331.848 77.144 331.848C75.944 331.848 74.944 332.152 74.192 332.76C73.44 333.368 73.064 334.16 73.064 335.136C73.064 335.92 73.344 336.576 73.904 337.104C74.464 337.632 75.336 338.048 76.52 338.368L80.376 339.328C82.944 340.024 84.904 341.072 86.256 342.48C87.608 343.888 88.28 345.624 88.28 347.68C88.28 350.344 87.28 352.464 85.272 354.04C83.264 355.616 80.504 356.4 76.976 356.4C73.712 356.4 71.096 355.68 69.128 354.248C67.16 352.816 66 350.88 65.64 348.44L71.856 347.344C71.968 348.472 72.472 349.344 73.36 349.976C74.248 350.608 75.44 350.92 76.92 350.92Z" fill="#1D2126"/>
<path d="M92.6 317.4C92.6 316.184 93.016 315.16 93.848 314.336C94.68 313.512 95.696 313.096 96.896 313.096C98.096 313.096 99.088 313.52 99.92 314.36C100.752 315.2 101.168 316.216 101.168 317.4C101.168 318.584 100.752 319.6 99.92 320.448C99.088 321.304 98.08 321.728 96.896 321.728C95.712 321.728 94.704 321.304 93.856 320.448C93.008 319.592 92.592 318.576 92.592 317.4H92.6ZM100.304 327.24V355.648H93.496V327.24H100.304Z" fill="#1D2126"/>
<path d="M116.776 350.92C118.184 350.92 119.296 350.64 120.112 350.088C120.928 349.536 121.336 348.712 121.336 347.624C121.336 346.104 120.312 345.096 118.272 344.584L114.36 343.544C108.976 342.08 106.288 339.312 106.288 335.248C106.288 332.64 107.232 330.512 109.128 328.864C111.024 327.216 113.568 326.392 116.776 326.392C119.648 326.392 122.048 327.048 123.992 328.36C125.936 329.672 127.12 331.472 127.552 333.76L121.448 335.192C121.32 334.16 120.84 333.344 120.024 332.744C119.208 332.144 118.2 331.848 117 331.848C115.8 331.848 114.8 332.152 114.048 332.76C113.296 333.368 112.92 334.16 112.92 335.136C112.92 335.92 113.2 336.576 113.76 337.104C114.32 337.632 115.192 338.048 116.376 338.368L120.232 339.328C122.8 340.024 124.76 341.072 126.112 342.48C127.464 343.888 128.136 345.624 128.136 347.68C128.136 350.344 127.136 352.464 125.128 354.04C123.12 355.616 120.36 356.4 116.832 356.4C113.568 356.4 110.952 355.68 108.984 354.248C107.016 352.816 105.856 350.88 105.496 348.44L111.712 347.344C111.824 348.472 112.328 349.344 113.216 349.976C114.104 350.608 115.296 350.92 116.776 350.92Z" fill="#1D2126"/>
<path d="M148.464 355.648C146.512 356.08 144.864 356.296 143.512 356.296C140.64 356.296 138.408 355.512 136.808 353.936C135.208 352.36 134.4 350.016 134.4 346.904V333.008H130.04V327.24H134.4V318.384H141.152V327.24H147.704V333.008H141.152V345.696C141.152 348.768 142.344 350.312 144.72 350.312C145.488 350.312 146.448 350.112 147.592 349.72L148.464 355.656V355.648Z" fill="#1D2126"/>
<path d="M171.256 355.648C171.032 354.728 170.872 353.648 170.776 352.416C169.952 353.632 168.784 354.608 167.272 355.328C165.76 356.048 164.016 356.408 162.024 356.408C158.912 356.408 156.416 355.576 154.544 353.92C152.672 352.264 151.728 350.016 151.728 347.184C151.728 344.352 152.648 342.24 154.496 340.672C156.344 339.104 158.872 338.32 162.072 338.32H170.592V337.224C170.592 335.44 170.072 334.112 169.032 333.232C167.992 332.352 166.536 331.912 164.656 331.912C161.336 331.912 158.96 333.296 157.512 336.072L152.56 333.176C154.96 328.656 159.112 326.4 165.016 326.4C168.6 326.4 171.528 327.32 173.816 329.16C176.12 331.016 177.272 334.008 177.272 338.128V349.432C177.272 352.64 177.44 354.712 177.776 355.648H171.224H171.256ZM170.664 343.016H163.664C162.072 343.016 160.832 343.384 159.952 344.112C159.072 344.84 158.632 345.848 158.632 347.12C158.632 348.392 159.08 349.464 159.984 350.16C160.888 350.856 162.168 351.2 163.84 351.2C165.848 351.2 167.488 350.568 168.76 349.304C170.032 348.04 170.672 346.16 170.672 343.664V343.016H170.664Z" fill="#1D2126"/>
<path d="M210 338.128V355.648H203.224V339.592C203.224 336.888 202.584 335.048 201.312 334.048C200.096 333.056 198.672 332.56 197.04 332.56C195.072 332.56 193.432 333.192 192.12 334.448C190.808 335.704 190.152 337.496 190.152 339.816V355.648H183.344V327.24H189.728L189.952 330.304C190.76 329.104 191.928 328.152 193.464 327.448C195 326.744 196.68 326.392 198.496 326.392C202.168 326.392 205.008 327.408 207 329.44C208.992 331.472 209.992 334.368 209.992 338.12L210 338.128Z" fill="#1D2126"/>
<path d="M231.728 355.648C229.776 356.08 228.128 356.296 226.776 356.296C223.904 356.296 221.672 355.512 220.072 353.936C218.472 352.36 217.664 350.016 217.664 346.904V333.008H213.304V327.24H217.664V318.384H224.416V327.24H230.968V333.008H224.416V345.696C224.416 348.768 225.608 350.312 227.984 350.312C228.752 350.312 229.712 350.112 230.856 349.72L231.728 355.656V355.648Z" fill="#1D2126"/>
</svg>
