<svg width="1715" height="240" viewBox="0 0 1715 240" fill="none" xmlns="http://www.w3.org/2000/svg">
<g clip-path="url(#clip0_2281_1252)">
<path d="M109.394 4.3814C115.242 -1.46047 124.788 -1.46047 130.606 4.3814L229.394 103.269C235.242 109.111 240 120.643 240 128.907V219.017L239.995 219.373C239.789 227.459 233.114 234.001 225 234.001H15C6.75759 234.001 2.40473e-05 227.22 0 218.987V128.877C0.000120331 120.613 4.78834 109.081 10.6064 103.239L109.394 4.3814ZM36 120.001C31.5817 120.001 28 123.582 28 128.001V206.001H44V128.001C44 123.582 40.4183 120.001 36 120.001ZM68 120.001C63.5817 120.001 60 123.582 60 128.001V206.001H76V128.001C76 123.582 72.4183 120.001 68 120.001ZM100 120.001C95.5817 120.001 92 123.582 92 128.001V206.001H108V128.001C108 123.582 104.418 120.001 100 120.001ZM158.393 120.427C154.2 119.032 149.671 121.3 148.275 125.492L121.479 206.001H138.342L163.456 130.544C164.851 126.352 162.584 121.823 158.393 120.427ZM188.708 125.492C187.313 121.3 182.783 119.032 178.591 120.427C174.399 121.823 172.131 126.352 173.526 130.544L198.642 206.001H215.504L188.708 125.492Z" fill="#F2F4F9"/>
<path d="M479.555 46.5625V192.559H455.238V101.934L419.203 192.559H395.57L359.828 102.52V192.559H336V46.5625H359.828L407.387 163.555L455.238 46.5625H479.555Z" fill="#F2F4F9"/>
<path d="M577.75 192.559C576.969 189.694 576.383 186.016 575.992 181.523C573.258 185.885 569.319 189.271 564.176 191.68C559.033 194.023 553.238 195.195 546.793 195.195C535.595 195.195 525.992 191.973 517.984 185.527C510.107 179.017 506.168 168.438 506.168 153.789V93.7305H529.996V149.395C529.996 158.704 532.177 165.15 536.539 168.73C541.031 172.246 546.109 174.004 551.773 174.004C558.023 174.004 563.557 171.986 568.375 167.949C573.193 163.717 575.602 157.305 575.602 148.711V93.9258H599.137V174.395C599.137 180.645 599.82 186.699 601.188 192.559H577.75Z" fill="#F2F4F9"/>
<path d="M655.34 176.152C660.223 176.152 664.064 175.208 666.863 173.32C669.728 171.367 671.16 168.503 671.16 164.727C671.16 159.453 667.612 155.938 660.516 154.18L646.941 150.566C628.257 145.488 618.914 135.885 618.914 121.758C618.914 112.708 622.202 105.319 628.777 99.5898C635.353 93.8607 644.207 90.9961 655.34 90.9961C665.301 90.9961 673.634 93.2747 680.34 97.832C687.111 102.389 691.245 108.639 692.742 116.582L671.551 121.562C671.095 117.982 669.435 115.15 666.57 113.066C663.771 110.983 660.288 109.941 656.121 109.941C651.889 109.941 648.471 111.016 645.867 113.164C643.263 115.247 641.961 117.982 641.961 121.367C641.961 124.102 642.938 126.38 644.891 128.203C646.844 130.026 649.871 131.491 653.973 132.598L667.352 135.918C676.271 138.327 683.074 141.973 687.762 146.855C692.449 151.738 694.793 157.76 694.793 164.922C694.793 174.167 691.31 181.523 684.344 186.992C677.378 192.461 667.775 195.195 655.535 195.195C644.207 195.195 635.125 192.721 628.289 187.773C621.453 182.76 617.417 176.022 616.18 167.559L637.762 163.75C638.152 167.656 639.878 170.716 642.938 172.93C646.062 175.078 650.197 176.152 655.34 176.152Z" fill="#F2F4F9"/>
<path d="M709.785 59.7461C709.785 55.5143 711.217 51.9661 714.082 49.1016C717.012 46.237 720.56 44.8047 724.727 44.8047C728.828 44.8047 732.311 46.2695 735.176 49.1992C738.105 52.1289 739.57 55.6445 739.57 59.7461C739.57 63.8477 738.105 67.3958 735.176 70.3906C732.311 73.3203 728.828 74.7852 724.727 74.7852C720.625 74.7852 717.109 73.3203 714.18 70.3906C711.25 67.3958 709.785 63.8477 709.785 59.7461ZM736.543 93.9258V192.559H712.91V93.9258H736.543Z" fill="#F2F4F9"/>
<path d="M804.562 90.9961C815.76 90.9961 825.461 93.763 833.664 99.2969C841.867 104.766 847.368 112.122 850.168 121.367L829.758 129.57C828.065 124.297 824.94 120.13 820.383 117.07C815.891 113.945 810.747 112.383 804.953 112.383C796.62 112.383 789.979 115.182 785.031 120.781C780.148 126.38 777.707 133.835 777.707 143.145C777.707 152.585 780.148 160.007 785.031 165.41C789.979 170.814 796.62 173.516 804.953 173.516C810.878 173.516 816.086 172.018 820.578 169.023C825.135 166.029 828.26 161.992 829.953 156.914L850.168 164.531C846.848 174.036 841.053 181.523 832.785 186.992C824.582 192.461 815.109 195.195 804.367 195.195C789.393 195.195 777.251 190.41 767.941 180.84C758.632 171.204 753.977 158.639 753.977 143.145C753.977 127.52 758.599 114.922 767.844 105.352C777.154 95.7812 789.393 90.9961 804.562 90.9961Z" fill="#F2F4F9"/>
<path d="M1002.42 158.574H946.852L934.84 192.559H909.254L961.988 46.5625H987.574L1040.41 192.559H1014.23L1002.42 158.574ZM995.191 137.578L974.781 79.1797L954.176 137.578H995.191Z" fill="#F2F4F9"/>
<path d="M1086.75 176.152C1091.63 176.152 1095.47 175.208 1098.27 173.32C1101.13 171.367 1102.57 168.503 1102.57 164.727C1102.57 159.453 1099.02 155.938 1091.92 154.18L1078.35 150.566C1059.66 145.488 1050.32 135.885 1050.32 121.758C1050.32 112.708 1053.61 105.319 1060.18 99.5898C1066.76 93.8607 1075.61 90.9961 1086.75 90.9961C1096.71 90.9961 1105.04 93.2747 1111.75 97.832C1118.52 102.389 1122.65 108.639 1124.15 116.582L1102.96 121.562C1102.5 117.982 1100.84 115.15 1097.98 113.066C1095.18 110.983 1091.69 109.941 1087.53 109.941C1083.3 109.941 1079.88 111.016 1077.27 113.164C1074.67 115.247 1073.37 117.982 1073.37 121.367C1073.37 124.102 1074.34 126.38 1076.3 128.203C1078.25 130.026 1081.28 131.491 1085.38 132.598L1098.76 135.918C1107.68 138.327 1114.48 141.973 1119.17 146.855C1123.86 151.738 1126.2 157.76 1126.2 164.922C1126.2 174.167 1122.72 181.523 1115.75 186.992C1108.78 192.461 1099.18 195.195 1086.94 195.195C1075.61 195.195 1066.53 192.721 1059.7 187.773C1052.86 182.76 1048.82 176.022 1047.59 167.559L1069.17 163.75C1069.56 167.656 1071.28 170.716 1074.34 172.93C1077.47 175.078 1081.6 176.152 1086.75 176.152Z" fill="#F2F4F9"/>
<path d="M1176.35 176.152C1181.23 176.152 1185.07 175.208 1187.87 173.32C1190.74 171.367 1192.17 168.503 1192.17 164.727C1192.17 159.453 1188.62 155.938 1181.52 154.18L1167.95 150.566C1149.26 145.488 1139.92 135.885 1139.92 121.758C1139.92 112.708 1143.21 105.319 1149.79 99.5898C1156.36 93.8607 1165.21 90.9961 1176.35 90.9961C1186.31 90.9961 1194.64 93.2747 1201.35 97.832C1208.12 102.389 1212.25 108.639 1213.75 116.582L1192.56 121.562C1192.1 117.982 1190.44 115.15 1187.58 113.066C1184.78 110.983 1181.3 109.941 1177.13 109.941C1172.9 109.941 1169.48 111.016 1166.88 113.164C1164.27 115.247 1162.97 117.982 1162.97 121.367C1162.97 124.102 1163.95 126.38 1165.9 128.203C1167.85 130.026 1170.88 131.491 1174.98 132.598L1188.36 135.918C1197.28 138.327 1204.08 141.973 1208.77 146.855C1213.46 151.738 1215.8 157.76 1215.8 164.922C1215.8 174.167 1212.32 181.523 1205.35 186.992C1198.39 192.461 1188.78 195.195 1176.54 195.195C1165.21 195.195 1156.13 192.721 1149.3 187.773C1142.46 182.76 1138.42 176.022 1137.19 167.559L1158.77 163.75C1159.16 167.656 1160.89 170.716 1163.95 172.93C1167.07 175.078 1171.2 176.152 1176.35 176.152Z" fill="#F2F4F9"/>
<path d="M1230.79 59.7461C1230.79 55.5143 1232.23 51.9661 1235.09 49.1016C1238.02 46.237 1241.57 44.8047 1245.73 44.8047C1249.84 44.8047 1253.32 46.2695 1256.18 49.1992C1259.11 52.1289 1260.58 55.6445 1260.58 59.7461C1260.58 63.8477 1259.11 67.3958 1256.18 70.3906C1253.32 73.3203 1249.84 74.7852 1245.73 74.7852C1241.63 74.7852 1238.12 73.3203 1235.19 70.3906C1232.26 67.3958 1230.79 63.8477 1230.79 59.7461ZM1257.55 93.9258V192.559H1233.92V93.9258H1257.55Z" fill="#F2F4F9"/>
<path d="M1314.73 176.152C1319.61 176.152 1323.45 175.208 1326.25 173.32C1329.12 171.367 1330.55 168.503 1330.55 164.727C1330.55 159.453 1327 155.938 1319.91 154.18L1306.33 150.566C1287.65 145.488 1278.3 135.885 1278.3 121.758C1278.3 112.708 1281.59 105.319 1288.17 99.5898C1294.74 93.8607 1303.6 90.9961 1314.73 90.9961C1324.69 90.9961 1333.02 93.2747 1339.73 97.832C1346.5 102.389 1350.64 108.639 1352.13 116.582L1330.94 121.562C1330.49 117.982 1328.83 115.15 1325.96 113.066C1323.16 110.983 1319.68 109.941 1315.51 109.941C1311.28 109.941 1307.86 111.016 1305.26 113.164C1302.65 115.247 1301.35 117.982 1301.35 121.367C1301.35 124.102 1302.33 126.38 1304.28 128.203C1306.23 130.026 1309.26 131.491 1313.36 132.598L1326.74 135.918C1335.66 138.327 1342.46 141.973 1347.15 146.855C1351.84 151.738 1354.18 157.76 1354.18 164.922C1354.18 174.167 1350.7 181.523 1343.73 186.992C1336.77 192.461 1327.17 195.195 1314.93 195.195C1303.6 195.195 1294.52 192.721 1287.68 187.773C1280.84 182.76 1276.81 176.022 1275.57 167.559L1297.15 163.75C1297.54 167.656 1299.27 170.716 1302.33 172.93C1305.45 175.078 1309.59 176.152 1314.73 176.152Z" fill="#F2F4F9"/>
<path d="M1424.74 192.559C1417.97 194.056 1412.24 194.805 1407.55 194.805C1397.59 194.805 1389.81 192.07 1384.21 186.602C1378.68 181.133 1375.91 172.995 1375.91 162.188V113.945H1360.78V93.9258H1375.91V63.1641H1399.35V93.9258H1422.11V113.945H1399.35V157.988C1399.35 168.665 1403.49 174.004 1411.75 174.004C1414.42 174.004 1417.74 173.32 1421.71 171.953L1424.74 192.559Z" fill="#F2F4F9"/>
<path d="M1503.99 192.559C1503.21 189.368 1502.66 185.625 1502.33 181.328C1499.47 185.56 1495.4 188.945 1490.12 191.484C1484.92 193.958 1478.86 195.195 1471.96 195.195C1461.15 195.195 1452.49 192.331 1445.98 186.602C1439.47 180.807 1436.22 172.995 1436.22 163.164C1436.22 153.529 1439.41 146.009 1445.79 140.605C1452.23 135.137 1461.02 132.402 1472.16 132.402H1501.75V128.594C1501.75 122.409 1499.92 117.786 1496.28 114.727C1492.7 111.667 1487.65 110.137 1481.14 110.137C1469.62 110.137 1461.35 114.954 1456.34 124.59L1439.15 114.531C1447.48 98.8411 1461.9 90.9961 1482.41 90.9961C1494.85 90.9961 1505.03 94.1862 1512.98 100.566C1520.98 107.012 1524.99 117.396 1524.99 131.719V170.977C1524.99 182.109 1525.57 189.303 1526.75 192.559H1503.99ZM1501.94 148.711H1477.62C1472.09 148.711 1467.79 149.98 1464.73 152.52C1461.67 155.059 1460.14 158.542 1460.14 162.969C1460.14 167.591 1461.71 171.107 1464.83 173.516C1467.96 175.924 1472.42 177.129 1478.21 177.129C1485.18 177.129 1490.87 174.948 1495.3 170.586C1499.73 166.159 1501.94 159.616 1501.94 150.957V148.711Z" fill="#F2F4F9"/>
<path d="M1638.61 131.719V192.559H1615.08V136.797C1615.08 127.422 1612.86 121.009 1608.44 117.559C1604.21 114.108 1599.26 112.383 1593.59 112.383C1586.76 112.383 1581.06 114.564 1576.5 118.926C1571.95 123.288 1569.67 129.505 1569.67 137.578V192.559H1546.04V93.9258H1568.2L1568.98 104.57C1571.78 100.404 1575.85 97.1159 1581.19 94.707C1586.53 92.2331 1592.36 90.9961 1598.67 90.9961C1611.43 90.9961 1621.26 94.5443 1628.16 101.641C1635.13 108.672 1638.61 118.698 1638.61 131.719Z" fill="#F2F4F9"/>
<path d="M1714.05 192.559C1707.28 194.056 1701.55 194.805 1696.87 194.805C1686.91 194.805 1679.13 192.07 1673.53 186.602C1667.99 181.133 1665.23 172.995 1665.23 162.188V113.945H1650.09V93.9258H1665.23V63.1641H1688.66V93.9258H1711.42V113.945H1688.66V157.988C1688.66 168.665 1692.8 174.004 1701.07 174.004C1703.74 174.004 1707.06 173.32 1711.03 171.953L1714.05 192.559Z" fill="#F2F4F9"/>
</g>
<defs>
<clipPath id="clip0_2281_1252">
<rect width="1714.05" height="240" fill="white"/>
</clipPath>
</defs>
</svg>
