<svg width="240" height="356" viewBox="0 0 240 356" fill="none" xmlns="http://www.w3.org/2000/svg">
<path d="M130.992 4.56406C124.939 -1.52135 115.034 -1.52135 109.008 4.56406L11.0056 103.09C4.95251 109.175 0 121.188 0 129.776V219.134C0 227.722 6.9964 234.783 15.565 234.783H224.435C232.977 234.783 240 227.749 240 219.134V129.776C240 121.188 235.048 109.175 228.994 103.09L130.992 4.56406Z" fill="#09202E"/>
<path d="M228 274.783C234.627 274.783 240 280.155 240 286.783V343.783C240 350.41 234.627 355.783 228 355.783H213C206.373 355.783 201 350.41 201 343.783V313.783H39V343.783C39 350.41 33.6274 355.783 27 355.783H12C5.37258 355.783 0 350.41 0 343.783V286.783C0 280.155 5.37258 274.783 12 274.783H228Z" fill="#09202E"/>
</svg>
